<?xml version="1.0" encoding="UTF-8"?><svg id="_이어_2" xmlns="http://www.w3.org/2000/svg" xmlns:xlink="http://www.w3.org/1999/xlink" viewBox="0 0 147.58 147.58"><defs><style>.cls-1,.cls-2{fill:#fff;}.cls-3{fill:#e5918d;}.cls-2{filter:url(#drop-shadow-2);}.cls-4{filter:url(#drop-shadow-1);}.cls-4,.cls-5{fill:#bb9dc9;}</style><filter id="drop-shadow-1" filterUnits="userSpaceOnUse"><feOffset dx="0" dy="0"/><feGaussianBlur result="blur" stdDeviation="4.44"/><feFlood flood-color="#322734" flood-opacity=".3"/><feComposite in2="blur" operator="in"/><feComposite in="SourceGraphic"/></filter><filter id="drop-shadow-2" filterUnits="userSpaceOnUse"><feOffset dx="0" dy="0"/><feGaussianBlur result="blur-2" stdDeviation="4.44"/><feFlood flood-color="#322734" flood-opacity=".3"/><feComposite in2="blur-2" operator="in"/><feComposite in="SourceGraphic"/></filter></defs><g id="_이어_1-2"><g><rect class="cls-1" width="147.58" height="147.58"/><path class="cls-4" d="M86.52,27.65l-13.13,50.38-13.76-50.38H21.58V122.51H124.71V27.65h-38.19Zm11.14,27.08v0h0Z"/><path class="cls-5" d="M112.28,121.44c6.68,3.76,13.35,7.52,20.03,11.27-2.53-11.7-5.07-23.39-7.6-35.09"/><polygon class="cls-3" points="21.58 122.51 85.61 122.51 59.59 27.65 21.58 27.65 21.58 122.51"/><polygon class="cls-2" points="92.16 78.28 85.96 103.79 79.39 78.28 68.74 78.28 62.7 103.74 56.51 78.28 43.74 78.28 55.49 122.51 65.58 122.51 67.38 122.51 79.41 122.51 81.94 122.51 90.82 122.51 102.55 78.28 92.16 78.28"/></g></g></svg>