<?xml version="1.0" standalone="no"?>
<!DOCTYPE svg PUBLIC "-//W3C//DTD SVG 20010904//EN"
 "http://www.w3.org/TR/2001/REC-SVG-20010904/DTD/svg10.dtd">
<svg version="1.0" xmlns="http://www.w3.org/2000/svg"
 width="148.000000pt" height="148.000000pt" viewBox="0 0 148.000000 148.000000"
 preserveAspectRatio="xMidYMid meet">
<metadata>
Created by potrace 1.14, written by Peter Selinger 2001-2017
</metadata>
<g transform="translate(0.000000,148.000000) scale(0.100000,-0.100000)"
fill="#000000" stroke="none">
<path d="M216 1178 c-8 -30 -8 -876 0 -906 6 -22 9 -22 170 -22 102 0 164 4
164 10 0 5 -25 103 -55 217 -30 114 -55 211 -55 215 0 5 29 8 64 8 l64 0 28
-120 c15 -66 31 -117 35 -113 3 5 14 42 23 83 34 158 30 150 90 150 l54 0 27
-112 c15 -62 30 -117 33 -123 3 -5 20 45 36 110 l31 120 53 3 53 3 -7 -28 c-4
-15 -31 -116 -59 -223 l-52 -195 126 -5 126 -5 73 -43 c41 -24 76 -41 78 -39
3 2 -11 79 -31 171 l-35 168 0 349 0 349 -192 -2 -191 -3 -57 -215 c-66 -255
-68 -261 -80 -240 -4 8 -31 101 -60 205 -28 105 -56 205 -61 223 l-11 32 -188
0 c-186 0 -188 0 -194 -22z"/>
</g>
</svg>
